<?xml version="1.0" standalone="no"?>
<!DOCTYPE svg PUBLIC "-//W3C//DTD SVG 20010904//EN"
 "http://www.w3.org/TR/2001/REC-SVG-20010904/DTD/svg10.dtd">
<svg version="1.0"
    xmlns="http://www.w3.org/2000/svg" width="215.000000pt" height="215.000000pt" viewBox="0 0 215.000000 215.000000" preserveAspectRatio="xMidYMid meet">

    <g transform="translate(0.000000,215.000000) scale(0.100000,-0.100000)" fill="#000000" stroke="none">
        <path d="M650 2139 c0 -4 15 -58 34 -120 19 -62 33 -115 32 -117 -2 -1 -29 34
-60 80 -31 45 -56 78 -56 72 0 -5 14 -52 30 -104 17 -51 30 -98 30 -102 0 -5
-27 20 -60 54 l-60 63 41 -94 c22 -51 38 -96 35 -98 -2 -2 -34 14 -70 36 -36
23 -66 38 -66 36 0 -3 19 -35 41 -71 23 -36 39 -67 37 -70 -3 -2 -22 2 -44 9
-102 36 -104 34 -39 -32 l59 -61 -108 0 c-60 0 -106 -3 -103 -7 4 -3 48 -21
99 -38 l92 -32 -85 -28 c-86 -28 -118 -45 -84 -45 36 0 145 -22 141 -29 -2 -3
-41 -20 -85 -36 -45 -16 -81 -32 -81 -35 0 -4 39 -12 86 -18 48 -6 89 -14 92
-16 2 -3 43 -125 91 -272 l87 -268 64 -27 c36 -15 100 -41 143 -59 42 -17 75
-36 72 -40 -3 -4 -60 -47 -128 -94 -67 -47 -147 -111 -179 -143 -96 -99 -338
-388 -328 -391 6 -2 49 24 95 57 47 34 88 61 91 61 3 0 4 -25 2 -55 -1 -30 -2
-55 -1 -55 1 0 21 28 45 61 40 57 43 60 49 38 4 -13 7 -36 8 -51 1 -16 4 -28
9 -28 4 0 25 28 47 62 37 57 40 60 46 37 4 -13 7 -38 8 -56 2 -53 17 -46 47
22 16 36 31 65 35 65 3 0 19 -28 34 -63 l29 -62 6 95 c4 69 12 109 29 145 26
57 32 51 45 -40 4 -27 14 -60 22 -72 21 -33 17 -51 -21 -96 -40 -46 -46 -67
-12 -43 50 37 88 48 131 37 46 -11 49 -10 40 12 -3 9 -23 21 -44 27 l-39 10
16 38 c31 75 57 119 109 182 79 96 117 123 185 131 40 5 68 15 94 34 24 19 52
30 85 33 48 4 49 4 68 -35 15 -28 17 -44 11 -56 -9 -15 -7 -16 14 -6 18 8 29
26 40 64 13 47 13 59 -1 109 -13 49 -24 64 -101 134 -47 43 -127 106 -177 140
l-91 61 -65 153 c-51 117 -72 183 -92 283 -15 72 -31 140 -36 153 -6 12 -72
90 -147 172 -117 127 -149 170 -210 278 -40 70 -73 124 -73 121z"/>
        <path d="M1816 1720 l-128 -27 -110 -109 -111 -109 -82 -170 c-71 -146 -83
-180 -89 -241 l-7 -71 108 -71 108 -72 5 118 c5 103 9 126 39 197 18 44 34 81
35 82 1 2 42 -8 91 -22 49 -13 91 -23 93 -21 1 2 -31 34 -72 72 -42 37 -74 69
-72 71 2 2 42 -12 89 -32 47 -19 89 -35 92 -35 4 0 -26 27 -67 61 -40 33 -77
66 -83 71 -7 7 31 9 120 5 144 -6 147 -9 -30 42 l-60 17 124 24 c67 14 119 26
114 27 -5 2 -58 7 -118 11 l-110 7 138 54 c75 30 136 56 134 57 -3 3 -140 -18
-207 -31 -14 -3 29 24 95 59 66 36 113 65 105 65 -8 0 -73 -13 -144 -29z"/>
        <path d="M1149 339 c-19 -24 -39 -49 -43 -56 -9 -16 42 -93 63 -93 36 0 44
-15 27 -49 -19 -36 -13 -38 30 -12 40 24 139 36 179 21 l30 -11 -28 29 c-26
27 -38 31 -106 37 -74 6 -78 8 -94 38 -9 18 -18 56 -19 86 l-3 54 -36 -44z"/>
    </g>
</svg>
